# xmcd
#
# Track frame offsets:
#	187
#	14547
#	29422
#	41797
#	54277
#	68987
#	83687
#	96980
#	108637
#	119587
#
# Disc length: 1807 seconds
#
# Revision: 2
# Processed by: cddbd v1.5.1PL0 Copyright (c) Steve Scherf et al.
# Submitted via: dBpowerAMP V4.0
#
DISCID=88070d0a
DTITLE=Merle Haggard - Ramblin' Fever
DYEAR=1977
DGENRE=Country
TTITLE0=Ramblin' Fever
TTITLE1=When  My Blue Moon Turns To Gold Again
TTITLE2=Ghost Story
TTITLE3=Set Me Free
TTITLE4=Love Somebody To Death
TTITLE5=If We're Not Back In Love By Monday
TTITLE6=I Think It's Gone Forever
TTITLE7=Ain't Your Memory Got No Pride At All
TTITLE8=My Love For You
TTITLE9=The Last Letter
EXTD=Spoetnik
EXTT0=
EXTT1=
EXTT2=
EXTT3=
EXTT4=
EXTT5=
EXTT6=
EXTT7=
EXTT8=
EXTT9=
PLAYORDER=
